name rise30.8019peak61.5557fall86.2505.mot
datacolumns 19
datarows 12
range 4.02665200000000 4.04498700000000
endheader
time	ground_force1_vx	ground_force1_vy	ground_force1_vz	ground_force1_px	ground_force1_py	ground_force1_pz	ground_force2_vx	ground_force2_vy	ground_force2_vz	ground_force2_px	ground_force2_py	ground_force2_pz	ground_torque1_x	ground_torque1_y	ground_torque1_z	ground_torque2_x	ground_torque2_y	ground_torque2_z	
4.02665200000000	-19.23201400000000	697.05968099999996	30.32906600000000	0.08867200000000	0.00000000000000	0.11291500000000	0.00000000000000	0.00000000000000	0.00000000000000	0.00000000000000	0.00000000000000	0.00000000000000	0.00000000000000	10.88323700000000	0.00000000000000	0.00000000000000	0.00000000000000	0.00000000000000	
4.02832300000000	-19.85438800000000	697.83882600000004	30.38540700000000	0.08757500000000	0.00000000000000	0.11294000000000	0.00000000000000	0.00000000000000	0.00000000000000	0.00000000000000	0.00000000000000	0.00000000000000	0.00000000000000	10.98884600000000	0.00000000000000	0.00000000000000	0.00000000000000	0.00000000000000	
4.02999200000000	-20.47469400000000	698.60716300000001	30.44266400000000	0.08649100000000	0.00000000000000	0.11296600000000	0.00000000000000	0.00000000000000	0.00000000000000	0.00000000000000	0.00000000000000	0.00000000000000	0.00000000000000	11.09439500000000	0.00000000000000	0.00000000000000	0.00000000000000	0.00000000000000	
4.03165600000000	-21.09247600000000	699.36464200000000	30.50096500000000	0.08542000000000	0.00000000000000	0.11299100000000	0.00000000000000	0.00000000000000	0.00000000000000	0.00000000000000	0.00000000000000	0.00000000000000	0.00000000000000	11.19981700000000	0.00000000000000	0.00000000000000	0.00000000000000	0.00000000000000	
4.03331800000000	-21.70729400000000	700.11130500000002	30.56044500000000	0.08436300000000	0.00000000000000	0.11301600000000	0.00000000000000	0.00000000000000	0.00000000000000	0.00000000000000	0.00000000000000	0.00000000000000	0.00000000000000	11.30504900000000	0.00000000000000	0.00000000000000	0.00000000000000	0.00000000000000	
4.03498700000000	-22.31872800000000	700.84728500000006	30.62124900000000	0.08331900000000	0.00000000000000	0.11304200000000	0.00000000000000	0.00000000000000	0.00000000000000	0.00000000000000	0.00000000000000	0.00000000000000	0.00000000000000	11.41003200000000	0.00000000000000	0.00000000000000	0.00000000000000	0.00000000000000	
4.03667100000000	-22.92638100000000	701.57280800000001	30.68352500000000	0.08228800000000	0.00000000000000	0.11306700000000	0.00000000000000	0.00000000000000	0.00000000000000	0.00000000000000	0.00000000000000	0.00000000000000	0.00000000000000	11.51471400000000	0.00000000000000	0.00000000000000	0.00000000000000	0.00000000000000	
4.03832200000000	-23.52987700000000	702.28818699999999	30.74742700000000	0.08127100000000	0.00000000000000	0.11309200000000	0.00000000000000	0.00000000000000	0.00000000000000	0.00000000000000	0.00000000000000	0.00000000000000	0.00000000000000	11.61904200000000	0.00000000000000	0.00000000000000	0.00000000000000	0.00000000000000	
4.03998900000000	-24.12886600000000	702.99382100000003	30.81311000000000	0.08026700000000	0.00000000000000	0.11311800000000	0.00000000000000	0.00000000000000	0.00000000000000	0.00000000000000	0.00000000000000	0.00000000000000	0.00000000000000	11.72297200000000	0.00000000000000	0.00000000000000	0.00000000000000	0.00000000000000	
4.04165700000000	-24.72302100000000	703.69019300000002	30.88073000000000	0.07927600000000	0.00000000000000	0.11314400000000	0.00000000000000	0.00000000000000	0.00000000000000	0.00000000000000	0.00000000000000	0.00000000000000	0.00000000000000	11.82645900000000	0.00000000000000	0.00000000000000	0.00000000000000	0.00000000000000	
4.04332200000000	-25.31204300000000	704.37786400000005	30.95044100000000	0.07829900000000	0.00000000000000	0.11317000000000	0.00000000000000	0.00000000000000	0.00000000000000	0.00000000000000	0.00000000000000	0.00000000000000	0.00000000000000	11.92946400000000	0.00000000000000	0.00000000000000	0.00000000000000	0.00000000000000	
4.04498700000000	-25.89565900000000	705.05747499999995	31.02239700000000	0.07733400000000	0.00000000000000	0.11319700000000	0.00000000000000	0.00000000000000	0.00000000000000	0.00000000000000	0.00000000000000	0.00000000000000	0.00000000000000	12.03195100000000	0.00000000000000	0.00000000000000	0.00000000000000	0.00000000000000	
